<svg xmlns="http://www.w3.org/2000/svg" viewBox="0 0 349.8 443.55"><path d="M198.63 201.86L260.45 278q13.77-31.65 25.93-44.68t26.8-13a35.13 35.13 0 0 1 24 9.08q10.25 9.09 10.25 21.1 0 17-10 38.08T307.32 336l28.13 34.86a74.88 74.88 0 0 1 11 17.28A40.22 40.22 0 0 1 349.8 404q0 15.24-10 24t-27.24 8.79a47.52 47.52 0 0 1-18.9-4.25q-9.81-4.24-15.09-10.69l-21.68-26.37a181.38 181.38 0 0 1-56.69 35.89 175 175 0 0 1-64.6 12.15q-59.76 0-97.7-35.44T0 317.58q0-41 21.09-70.61t70.32-57.13q-24-31.05-32.82-50.53t-8.79-38.24q0-45.69 30.33-73.38T161.43 0q49.5 0 78.22 25.49t28.71 68.85q0 32.8-16.85 58.74t-52.88 48.78zm13.19 138l-77.93-96.68q-27.25 16.71-38.24 32.23T84.67 312q0 24.9 16.84 41.6t42.63 16.7a86 86 0 0 0 35.86-7.75 105.47 105.47 0 0 0 31.82-22.71zm-54.5-189q20.22-12 29-25.2t8.79-31.34q0-14.94-9.23-23.73t-25-8.79q-16.11 0-25.49 8.93T126 94.92q0 10.26 6.88 22.71t24.44 33.25z"/></svg>